<svg xmlns="http://www.w3.org/2000/svg" width="24" height="24" viewBox="0 0 24 24">
  <path d="M699 535V682Q699 726 674.0 760.5Q649 795 609.0 809.5Q569 824 527 813L172 720Q127 708 98.5 671.5Q70 635 70 589V79Q70 42 88.5 11.0Q107 -20 139.0 -38.0Q171 -56 208 -56H808Q856 -56 885.5 -35.0Q915 -14 927.0 16.5Q939 47 939 77V363Q939 411 911.5 447.5Q884 484 842 496ZM189 659 547 753Q570 759 590.5 750.0Q611 741 623.5 723.0Q636 705 636 685V75Q636 46 614.5 25.5Q593 5 564 5H206Q177 5 155.0 25.5Q133 46 133 75V591Q133 615 149.0 634.0Q165 653 189 659ZM699 79V470L825 435Q851 428 864.0 407.5Q877 387 877 363V77Q877 48 858.5 26.5Q840 5 809 5H677Q689 21 694.0 40.5Q699 60 699 79ZM367 184V257Q367 291 345.0 310.5Q323 330 294 330Q264 330 242.5 311.5Q221 293 221 257V184ZM294 288Q307 288 316.0 278.0Q325 268 325 257V226H263V257Q263 269 270.5 278.5Q278 288 294 288ZM563 184V257Q563 292 541.0 311.0Q519 330 490 330Q460 330 438.5 311.0Q417 292 417 257V184ZM490 288Q502 288 511.5 279.5Q521 271 521 257V226H458V257Q458 273 468.0 280.5Q478 288 490 288ZM367 375V448Q367 482 345.0 501.5Q323 521 294 521Q264 521 242.5 502.5Q221 484 221 448V375ZM294 479Q307 479 316.0 469.0Q325 459 325 448V417H263V448Q263 460 270.5 469.5Q278 479 294 479ZM563 375V448Q563 483 541.0 502.0Q519 521 490 521Q460 521 438.5 502.0Q417 483 417 448V375ZM490 479Q502 479 511.5 470.5Q521 462 521 448V417H458V448Q458 464 468.0 471.5Q478 479 490 479Z" transform="translate(0, 21.12) scale(0.024, -0.024)"/>
</svg>