<svg xmlns="http://www.w3.org/2000/svg" width="24" height="24" viewBox="0 0 24 24">
  <path d="M566 5 804 42Q866 51 906.5 98.5Q947 146 947 208V673Q947 726 906 761Q887 777 862.0 783.5Q837 790 812 785L602 745Q571 739 544.5 722.0Q518 705 500 680Q482 705 455.5 722.0Q429 739 397 745L188 785Q163 790 138.0 783.5Q113 777 94 761Q74 744 63.5 721.0Q53 698 53 672V208Q53 146 93.5 99.0Q134 52 196 42L435 5Q446 -10 463.5 -18.5Q481 -27 500 -27Q540 -27 566 5ZM177 724 386 684Q422 677 445.5 648.5Q469 620 469 584Q469 571 478.0 561.5Q487 552 500 552Q513 552 522.0 561.5Q531 571 531 584Q531 620 554.5 648.5Q578 677 614 684L823 723Q847 728 865 713Q884 696 884 672V208Q884 168 858.5 138.5Q833 109 794 103L543 65Q528 62 520 48Q514 36 500.5 36.0Q487 36 480 48Q474 62 457 65L205 103Q166 109 140.5 138.5Q115 168 115 208V672Q115 696 134 713Q149 725 167 725Q174 725 177 724ZM531 193V463Q531 476 522.0 485.5Q513 495 500 495Q487 495 478.0 485.5Q469 476 469 463V193Q469 180 478.0 170.5Q487 161 500 161Q513 161 522.0 170.5Q531 180 531 193Z" transform="translate(0, 21.12) scale(0.024, -0.024)"/>
</svg>