<svg xmlns="http://www.w3.org/2000/svg" width="24" height="24" viewBox="0 0 24 24">
  <path d="M731 104 707 88Q639 44 594.0 25.0Q549 6 498 6Q444 6 382.5 25.5Q321 45 240 88Q189 116 165.5 135.5Q142 155 136.5 169.5Q131 184 131 206Q131 274 138.5 298.5Q146 323 168.5 329.0Q191 335 258 335H263H305Q346 335 376.5 333.0Q407 331 432 325L450 320L603 274Q607 272 609 272Q630 262 640.0 251.5Q650 241 647 219Q642 201 627.5 196.0Q613 191 589 196Q585 196 583 197L532 209L429 231Q406 236 395.0 234.0Q384 232 383 218Q383 216 383.0 215.0Q383 214 383 212Q384 201 392.0 196.5Q400 192 415 189L420 188Q587 148 599 148Q620 147 637.0 154.5Q654 162 694 187Q740 217 789 245Q813 258 828.5 260.5Q844 263 857 250Q869 238 868.0 224.0Q867 210 855 197Q840 180 806.5 156.0Q773 132 731 104ZM709 272Q725 283 736 287Q782 326 800.0 377.0Q818 428 818 499Q818 585 775.0 658.0Q732 731 659.0 774.0Q586 817 499 817Q413 817 340.0 774.0Q267 731 224.0 658.0Q181 585 181 499Q181 471 186.5 443.0Q192 415 200 396L267 395Q257 410 250.0 439.5Q243 469 243 498Q243 568 277.5 627.0Q312 686 371.0 720.5Q430 755 500 755Q569 755 627.5 720.5Q686 686 720.5 627.0Q755 568 755 499Q755 439 731.5 391.5Q708 344 660 308Q675 300 682.5 288.5Q690 277 692 262ZM210 33Q298 -14 366.0 -35.0Q434 -56 497 -56Q560 -56 616.0 -32.5Q672 -9 758 48Q830 95 866.5 123.5Q903 152 921.0 182.5Q939 213 928 247Q917 282 890.5 302.5Q864 323 830 323Q812 323 788.5 314.0Q765 305 735 288Q714 275 692 262Q692 273 686.5 284.5Q681 296 670 303Q661 309 630.5 321.5Q600 334 563 347Q511 364 470.0 375.5Q429 387 391 393Q369 394 346.0 394.5Q323 395 297 395Q281 396 245 396L175 397Q140 398 114.5 373.5Q89 349 78 310Q68 264 68 206Q68 168 81.0 140.5Q94 113 124.5 87.5Q155 62 210 33ZM563 347 656 441Q679 465 679.5 498.0Q680 531 656 555L557 655Q534 679 499.5 679.0Q465 679 442 655L343 555Q319 531 319.5 497.5Q320 464 343 441L391 393Q429 387 470.0 375.5Q511 364 563 347ZM387 511 487 610Q493 616 500.0 616.0Q507 616 513 610L612 511Q617 506 617.0 498.0Q617 490 612 485L513 385Q507 380 499.5 380.0Q492 380 487 385L387 485Q382 490 382.0 498.0Q382 506 387 511Z" transform="translate(0, 21.12) scale(0.024, -0.024)"/>
</svg>