<svg xmlns="http://www.w3.org/2000/svg" width="24" height="24" viewBox="0 0 24 24">
  <path d="M565 482Q552 538 559.0 591.0Q566 644 592 689Q600 704 596.5 718.5Q593 733 580.5 741.5Q568 750 552 746Q458 724 388.0 656.0Q318 588 291 495Q347 495 394.0 474.0Q441 453 474 414Q507 375 520.5 325.5Q534 276 525 225Q518 184 497.5 148.0Q477 112 445 86Q531 31 636 31Q735 31 817.5 80.0Q900 129 947 212Q955 226 951.0 240.0Q947 254 934.0 261.5Q921 269 905 265Q828 247 750 273Q680 297 630.5 352.5Q581 408 565 482ZM196 106Q201 108 210.0 107.0Q219 106 223 104Q278 80 327 90Q382 99 422.5 139.0Q463 179 472 234Q481 288 459.0 336.0Q437 384 393.5 412.5Q350 441 297 441Q257 441 219.5 422.5Q182 404 156.0 370.0Q130 336 123 293Q114 239 137 190Q143 176 140 163Q128 121 121 87Q184 103 196 106Z" transform="translate(0, 21.12) scale(0.024, -0.024)"/>
</svg>