<svg xmlns="http://www.w3.org/2000/svg" width="24" height="24" viewBox="0 0 24 24">
  <path d="M499 386Q486 386 477.0 377.0Q468 368 467 355V318Q467 305 476.0 295.5Q485 286 498 286Q511 286 520.0 295.0Q529 304 529 317L530 354Q530 367 521.0 376.5Q512 386 499 386ZM500 528Q487 528 478.5 519.0Q470 510 469 497V459Q468 446 477.5 437.0Q487 428 500 428Q513 428 522.0 436.5Q531 445 531 458V496Q532 509 522.5 518.5Q513 528 500 528ZM465 627Q468 616 476.5 608.5Q485 601 496 601Q511 601 520.0 607.5Q529 614 532 627Q534 639 538 651L540 658Q544 671 538.5 682.5Q533 694 521 698Q516 700 510.5 700.0Q505 700 500 699Q500 698 498 698Q496 699 493 699Q484 701 475 698Q463 694 458.0 682.5Q453 671 458 658Q464 638 465 627ZM285 773 304 775Q317 775 326.0 784.5Q335 794 335 807Q335 820 324.5 829.5Q314 839 302 838Q288 838 258 832Q246 829 239.0 817.5Q232 806 236 794Q239 783 247.5 776.5Q256 770 266 770Q273 770 285 773ZM410 733Q419 724 432.0 724.5Q445 725 454 734Q463 743 462.5 756.0Q462 769 453 778Q440 791 419 805Q408 812 395.0 809.0Q382 806 375 795Q368 784 371.0 772.0Q374 760 385 753Q394 747 410 733ZM147 585Q147 602 150 618Q152 631 144.0 641.5Q136 652 123 653Q110 655 100.0 647.5Q90 640 88 627Q85 606 85 585Q85 572 94.0 563.0Q103 554 116 554Q129 554 138.0 563.0Q147 572 147 585ZM181 702Q189 717 201 727Q209 737 209.0 750.0Q209 763 200 771Q190 780 177.5 780.0Q165 780 155 770Q142 756 129 736Q122 726 124.5 713.5Q127 701 138 693Q148 686 160.5 688.5Q173 691 181 702ZM466 213V183Q465 170 474.0 161.0Q483 152 496 152Q509 152 518.5 161.0Q528 170 528 183V212Q528 225 519.0 234.0Q510 243 497 244Q484 244 475.0 235.0Q466 226 466 213ZM860 693Q871 700 873.5 712.5Q876 725 869 736Q865 741 842 770Q833 779 820.0 779.5Q807 780 798 771Q788 762 788.0 749.0Q788 736 797 727L817 702Q824 691 836.5 688.0Q849 685 860 693ZM588 733Q598 743 613 753Q624 760 626.5 772.5Q629 785 622 796Q615 807 602.0 809.5Q589 812 579 805Q559 793 545 778Q535 769 535.0 756.5Q535 744 544 734Q554 724 566.0 724.0Q578 724 588 733ZM724 771Q734 768 746.0 774.5Q758 781 762 794Q765 806 758.5 817.5Q752 829 740 832Q710 838 696 838Q682 838 673.0 829.5Q664 821 664 808Q663 795 671.5 785.5Q680 776 693 775Q709 775 724 771ZM851 585Q851 572 860.0 563.0Q869 554 882 554Q895 554 904.0 563.0Q913 572 913 585Q913 613 910 627Q909 640 898.5 647.5Q888 655 875 653Q862 651 854.0 641.0Q846 631 848 618Q851 602 851 585ZM383 32 360 92Q321 87 289.5 81.0Q258 75 215 64Q202 61 190.0 67.0Q178 73 173 86L81 327Q67 365 82.5 401.0Q98 437 136 454Q213 490 306.0 509.5Q399 529 500 529Q696 529 864 454Q902 437 917.5 400.0Q933 363 918 324L826 84Q822 72 809.5 66.5Q797 61 785 64Q631 103 500 103Q480 103 462.0 102.5Q444 102 424 100L447 39Q455 40 462.5 40.0Q470 40 478 40Q489 41 500 41Q604 45 770 3Q806 -6 839.0 11.0Q872 28 885 63L978 305Q993 345 986.5 386.5Q980 428 954.5 461.5Q929 495 890 512Q711 591 500 591Q289 591 110 512Q71 494 45.5 460.0Q20 426 14.0 384.0Q8 342 23 302L116 61Q129 27 161.5 10.5Q194 -6 230 3Q277 14 311.5 21.0Q346 28 383 32ZM469 -105Q493 -95 503.5 -71.5Q514 -48 505 -24Q499 -8 486.0 2.5Q473 13 456 16L270 502L210 484L398 -7Q388 -19 385.0 -36.5Q382 -54 388 -69Q397 -92 421.0 -103.0Q445 -114 469 -105Z" transform="translate(0, 21.12) scale(0.024, -0.024)"/>
</svg>